<svg width="172" height="54" viewBox="0 0 172 54" fill="none" xmlns="http://www.w3.org/2000/svg">
<path id="Logo" d="M28.4139 38.1477H11.3331C11.033 38.1477 10.8207 37.8562 10.9139 37.5727L18.7828 13.298C18.9145 12.8978 19.4825 12.8942 19.6195 13.2927L28.8314 37.5673C28.929 37.8526 28.7167 38.1477 28.4139 38.1477ZM40.7297 48.0706L23.0058 0.502788C22.9529 0.292401 22.8338 0.0641857 22.4835 0.0641857H21.9989C21.5357 0.0641857 21.4641 0.269223 21.3996 0.353021C19.1152 3.34122 15.2595 4.38156 15.2595 4.38156C15.0983 4.4511 14.9926 4.60978 14.9926 4.78451V5.5788C14.9926 5.77493 15.1252 5.94609 15.3142 6.00047C17.4015 6.59151 17.6335 7.836 18.1011 9.29444C18.1486 9.43351 18.1692 9.5806 18.1002 9.78029L7.12453 43.065C5.19222 48.9433 2.98132 51.657 0.384311 51.961C0.164833 51.9868 0 52.174 0 52.3942V52.9478C0 53.1903 0.197082 53.3864 0.440748 53.3864H1.10545C2.45636 53.3864 4.7882 53.1689 6.0773 53.1689C7.73548 53.1689 10.0082 53.3864 11.6664 53.3864H12.0238C12.2675 53.3864 12.4646 53.1903 12.4646 52.9478V52.4138C12.4646 52.1829 12.2845 51.9895 12.0534 51.977C9.43755 51.8371 8.10367 50.3376 8.10367 47.8522C8.10367 46.7646 8.28821 45.5308 8.90185 43.6454L10.0055 40.0804C10.0628 39.8967 10.2339 39.7719 10.4265 39.7719H29.4513C29.6394 39.7719 29.8069 39.8905 29.8678 40.0679L32.2669 47.2736C32.635 48.3612 32.7587 49.2322 32.7587 49.8125C32.7587 51.2291 32.1208 51.8932 30.3534 51.9788C30.1196 51.9904 29.9332 52.1829 29.9332 52.4156V52.9478C29.9332 53.1903 30.1303 53.3864 30.374 53.3864H31.8369C33.1269 53.3864 35.7812 53.1689 37.7457 53.1689C39.5266 53.1689 41.8334 53.3864 43.1843 53.3864H44.7081C44.9518 53.3864 45.1489 53.1903 45.1489 52.9478V52.4112C45.1489 52.1803 44.9679 51.9904 44.7359 51.9743C42.7812 51.8415 41.6462 50.7183 40.7271 48.0706M69.7215 17.5958V17.413C69.7215 17.1706 69.5244 16.9744 69.2807 16.9744H59.8727C59.629 16.9744 59.432 17.1706 59.432 17.413V17.5815C59.432 17.7955 59.5869 17.98 59.8002 18.0139C62.4258 18.4373 63.7158 19.1469 63.3664 20.8434C63.2545 21.389 62.949 22.4659 62.6283 23.286L55.2287 41.2544C55.0791 41.6182 54.5613 41.6173 54.4117 41.2535C54.4117 41.2535 46.7273 21.1394 46.5705 20.6517C46.1943 19.4768 47.0203 18.3758 48.7241 18.0246C48.9275 17.9827 49.0735 17.8026 49.0735 17.5958V17.4139C49.0735 17.1714 48.8764 16.9753 48.6327 16.9753H35.49C35.2464 16.9753 34.923 17.1714 34.923 17.4139V17.6243C34.923 17.8178 35.1765 17.9907 35.3628 18.0442C37.4349 18.6406 37.967 19.5463 39.162 22.5639L50.9028 53.0717C51.2092 54.3278 52.0566 54.2333 52.4391 53.2429C52.4391 53.2429 64.7218 23.015 64.7801 22.8314C64.7801 22.8314 65.1473 21.6118 65.9894 20.3959C66.7285 19.3279 67.8339 18.2608 69.3775 18.0246C69.5817 17.9934 69.7232 17.8017 69.7232 17.5958M91.7275 27.1773L91.6397 37.0298V42.9304C91.6397 43.5562 91.5125 44.1767 91.2545 44.7481C89.6689 48.2667 87.0405 50.0416 84.5797 50.0416C79.5496 50.0416 76.4554 44.3104 76.4554 35.1702C76.4554 26.03 79.5496 19.3235 84.5797 19.3235C87.1794 19.3235 89.8982 21.5298 91.4444 25.5709C91.6406 26.0834 91.732 26.629 91.7266 27.1773M101.896 53.0129V52.7526C101.896 52.5841 101.8 52.4281 101.647 52.3568C100.225 51.6962 99.7505 51.0169 99.6224 49.0833C99.6126 48.938 99.6054 0.438602 99.6054 0.438602C99.6054 0.196123 99.4083 0 99.1646 0H98.6388C98.517 0 98.3414 0.0650771 98.2491 0.144418C94.767 3.13618 93.8775 3.61312 89.6438 5.45043C89.4825 5.51997 89.1072 5.7045 89.1072 5.9871V6.5826C89.1072 6.77872 89.3643 6.95255 89.5542 7.00426C91.164 7.43484 91.7669 8.38514 91.7669 9.93451L91.7651 21.3863C91.7651 21.6537 91.4175 21.7572 91.2688 21.5352C89.1591 18.4026 85.9655 16.5278 81.8832 16.5278C74.3018 16.5278 67.8868 23.7817 67.8868 35.1711C67.8868 46.5605 74.1558 53.4524 81.5921 53.4524C85.901 53.4524 88.9585 51.2442 91.2706 47.8959C91.422 47.6766 91.766 47.7818 91.766 48.0474V52.7642C91.766 53.2197 92.0016 53.4524 92.3743 53.4524H101.455C101.699 53.4524 101.896 53.2563 101.896 53.0138M128.054 35.0275C128.054 44.9656 125.47 51.8861 120.441 51.8861C115.411 51.8861 112.753 44.9656 112.753 35.0275C112.753 25.0895 115.338 18.2466 120.441 18.2466C125.543 18.2466 128.054 25.0895 128.054 35.0275ZM136.624 35.0275C136.624 24.2907 129.699 16.6018 120.441 16.6018C111.182 16.6018 104.184 24.2916 104.184 35.0275C104.184 45.7635 111.11 53.5264 120.441 53.5264C129.772 53.5264 136.624 45.8366 136.624 35.0275ZM163.305 35.0275C163.305 44.9656 160.847 51.7613 155.817 51.7613C150.787 51.7613 148.256 44.9656 148.256 35.0275C148.256 25.0895 150.714 18.3714 155.817 18.3714C160.919 18.3714 163.305 25.0886 163.305 35.0275ZM172 35.0275C172 24.2907 165.074 16.6018 155.816 16.6018C146.558 16.6018 139.559 24.2916 139.559 35.0275C139.559 45.7635 146.485 53.5264 155.816 53.5264C165.147 53.5264 172 45.8366 172 35.0275Z" fill="#1E1E1E"/>
</svg>
