<?xml version="1.0" encoding="UTF-8"?>
<svg preserveAspectRatio="xMidYMid slice" xmlns="http://www.w3.org/2000/svg" id="Layer_1" width="30px" height="6px" version="1.1" viewBox="0 0 798 162">
  <path d="M546,96h25.5c.2,0,.7.8,1.5.5,4.1-6.7,8.6-13.6,12.5-20.5s2.8-12.6,10.6-7.6c1.2,1.5,1.1,3.1.7,4.9-1.1,5.1-15.9,20.4-14.6,26s3.6,4.1.8,7.8c2.1.2,3.1-1.8,5-2.6s2.4.6,2.8.3c.7-.4,4.3-5.4,5.8-6.6,2.8-2.2,8.4-4.7,10.4-6.6,3.2-3,6.8-16.2,14.5-12.6,4.3,6.5-9.4,15.6-6.1,20.1s4.2,1.4,5.4.7c4.7-9.3,24.3-30.9,35.6-23.7s1.8,1.7,2.2,2.8c.9,2.9-1.5,6.1.9,6,2.6-2.8,5.5-5.2,8-8,12.9-14.4,26.3-35.3,40.1-47.9,4.3-3.9,9.1-4.1,9.2,2.6,0,3.7-16.8,24.2-20.3,28.3-9,10.7-21.5,21-29.9,31.1-3.2,3.9-23.4,37.8-21.6,39.9,5.6-1.9,12-4.4,17.2-7.3s9.7-5.2,9.8-7.2c.3-3.4-1.4-4.5,0-10,3.4-12.7,16.4-24.5,29-28s8.9-.7,12.3-1.5.8-2.9,3.2-3.1,4.1,2.6,6.7,3.4c7.8,2.5,19.3-.6,27.5-1,2.3-.1,5.2,1.3,7.6.7s1.1-3.4,3.1-3.1c10.7,7.1,23.7,3.2,35.5,2-.7,6.9-8.5,9.2-14.6,9.9s-14.4-.2-21.4-.5c-9.4,15.2-20.5,40.8-42.6,34.7-7.7-12.7,4.1-24.7,11.6-34.1l-13.3-.9c-7.4,11.2-17.1,32.5-31.6,35.5s-9.1-.3-13,1-7.6,7.7-11.5,10.5-18.4,10.8-22.4,4.4c-6.1-9.6,13.4-33.7,11.9-35.4-6.8,4.3-22.8,19.5-31,15.5-2.9-1.4-3.2-5.8-2.5-8.6l-10.9-7.9c-1.4.2-10.1,10.5-12.7,12.4s-6.6,2.9-9.3,4.7c-4.2,2.9-15.4,15.6-19.7,8.4-2.8-4.7.7-7.3,1-11.1s-2.4-2.8,2.6-7.4l-1-2h-27c-10.1,10.2-16.9,23-24.5,35,.9.8,5.1-2.7,6-3.5,10.9-9,20.4-21.3,32.5-28.5,4.2,0,1.4,4.8-.1,6.9-4.6,6.8-27.1,26.3-34.4,32.6s-13.5,11.7-15.4,12.6c-5.3,2.3-9.1-.3-6.8-5.8l31.2-48.3-46.3,1.2c-10.4,10.1-17.9,25-31.6,30.8l-.5-6,21.5-25-27.4-2.1c-14.8,0-27.6-18.9-8.4-24.2,9.2-2.5,39.8-3.1,49.7-2s9.4,3.1,12.1,1.9L574,6.5c18.3-15.2,20.1,3.8,14.5,18.5-9.5,24.9-29.8,45.5-41.5,67.5s-1.4,1.9-1,3.5ZM492,98c11.1-.6,23.5,0,34.5-1s10.4-3.1,15.9-11.1c8-11.6,39.1-58.3,41.1-68.9s.6-4,.4-6.1c-10.6,4.2-17,13.1-25,20.5s-7.3,6.6-11,10c-15.8,14.8-42,37.1-54.5,53.5s-1.9,1.3-1.5,3ZM625,109c.8.7,9.3-4.8,10.7-5.8,2.9-1.9,14.9-10.6,16.4-12.7s-2.3-10.4-8.1-5.1-10.2,10.7-12.9,14.1-6.4,9.1-6,9.5ZM490,87c-16.8-2.2-34.4-3.2-51.1.4-5.6,1.2-9.4,2.5-2,6.1s33.2,5.5,40.6,4.5,9.4-7.8,12.4-11ZM708,85c-2-.3-3.4.7-5,1.5-7.5,3.5-20.2,12.5-24.2,19.8-7.3,13.3,8.6,6.1,14.2,1.2,5.8-5.1,6.5-9.8,10.1-14.9,1.7-2.4,5.7-3.2,4.9-7.6ZM753,85c-1.3-1.3-18.9,9.8-21,11.5s-12.9,14.5-10,17.5c7.8,1,18.5-8,22.5-14s1.6-5.1,3.1-6.9,5.9-3.3,5.5-8Z"></path>
  <path d="M255,13c.5,3.4,1.5,5.5.5,9s-9.6,12.7-10.4,15.7,1.2,8.1.8,11.8c-.6,6.6-5.5,12.5-12,14s-10.4-.8-14.1,1.9l-35.9,45.1,14.5-4.5c.4,7.5-10.7,10.7-16,14s-17.9,14.7-16.3,3.8,8.7-12.7,7.8-13.7c-5.2,3.2-9.4,7.7-14.6,10.8s-3.7.9-5.3,1.7c-5.3,2.9-16.2,12.7-20.2,3s-.3-5.6,1.3-8.9l21.8-30.7-51,38.6h-2c-4-1.3-6.4-9-3-12.1,20.2-21.7,38-46.1,58.6-67.4s14.4-14.4,16.6-15.4,3-.9,4.7-.8c1.5,10.4-8.5,14.7-14.5,21-12.9,13.4-25,27.9-37.5,41.5s-10.1,11.3-5.5,9.5,7.8-4.3,8.8-5c10.8-7.2,16.5-15.7,29.6-21.6s5-5,9.2-3c1.3.9,1.1,4.5,1,6.1-.8,8.3-21.8,28.4-26.7,37.3s-1.7,2.3-1.3,4.2c15-4.8,28-14,41-22.4l47.5-60.6c-22.6-22.6-53.7-25.3-83.7-18.7s-30.6,11.3-39,26c-19.1,33.7-6.1,62.3-41.8,93.2s-51.2,31-63.6,6.5,1.1-33.4,15.5-45.6,9.9-8.4,9-4-12.5,13.8-15.4,18.6c-12.5,20.2-6.8,38.5,19.6,32.6,22.5-5,44.7-27.9,53.3-48.7,12.1-29.5,5.8-61.2,38.5-79.5s86.4-13.7,114.4,11.4c3.2-1.3,12.5-17.5,15.6-14.9ZM239,46c-1.3-1.4-12.9,11.3-12,12,7-1.2,11.9-4.3,12-12Z"></path>
  <path d="M250.5,86c-.4,0-1.3-1.2-2.8-.9-8.3,10.4-17,31-31,35.1-21.6,6.4-15.9-15.6-7.6-26.6,6.1-8,13.9-12.8,23.6-15.4s8.4-.7,10.6-1.4,1.3-2.7,2.3-2.9c3-.7,5.4,3.2,9.1,3.8s10.1.7,12.7.2,18.1-18.7,17.6-5.5-11.4,16.9-15,25l1.5.5,40.6-28.4c4.1-2,7.5,1,7.7,5.1.3,6.7-24.7,30.4-22.7,32.3,1.7.3,2.6-.9,3.9-1.6,6-3.3,38.2-28.3,41.1-27s1.3,9.8.5,12.5c-1.5,4.7-7.2,13.6-10,18s-13.3,11.9-4.4,16.1l-2.4,2.9-.6,2.1,3,1.5c-7.8,5.2-12.7-2.1-10.7-9.8l14.8-29.7c-2.1,1.6-6.6,2.6-8.3,3.9s-1.3,3-2.8,4.5c-3.4,3.4-32.3,23.5-36.6,25.4s-7.5.2-6.6-5.5l25.2-35.3c-14.2,8.9-27.4,22.4-41.7,30.8s-14.4,8.2-14.3.7,6-9.5,7.1-11c3.7-5.1,10.5-11.3,14-16.3s1.2-2,1-3.2c-6.2,0-12.3,0-18.5,0ZM238,85c-10.2,4.5-23.4,11.4-28.8,21.7s7.2,6.4,12.8,1.8,7-9.2,10.9-15.1,6.4-2.8,5.1-8.4Z"></path>
  <path d="M370.4,89.4c-1.6,1.7-18.5,21.8-17.3,22.6,3.4.5,5.9-1.5,8.7-2.8,8.8-4.3,16.6-10.3,25-15s6.7-1.2,8.9-5.1l2.5,1.5c.8,3.2-7.2,8.5-9.7,10.3-8.9,6.6-25.7,16.9-35.6,21.4-7.5,3.4-12.3,4.5-10.2-6.2,8.6-17.8,23.5-31.8,36.5-46.5l1.5-.5c13.1,4.5-5.8,15.8-10.2,20.4Z"></path>
  <path d="M414,38c4.7,7.9-18.4,18.4-21.5,14.1s-.6-4.9,1-6.1l20.5-7.9Z"></path>
</svg>
